<?xml version="1.0" standalone="no"?>
<!DOCTYPE svg PUBLIC "-//W3C//DTD SVG 1.1//EN" "http://www.w3.org/Graphics/SVG/1.1/DTD/svg11.dtd" >
<svg xmlns="http://www.w3.org/2000/svg">
<metadata></metadata>
<defs>
<font id="destructobeam_bbregular" horiz-adv-x="1124" >
<font-face units-per-em="2048" ascent="1638" descent="-410" />
<missing-glyph horiz-adv-x="835" />
<glyph horiz-adv-x="0" />
<glyph unicode="&#xd;" horiz-adv-x="835" />
<glyph unicode=" "  horiz-adv-x="835" />
<glyph unicode="&#x09;" horiz-adv-x="835" />
<glyph unicode="&#xa0;" horiz-adv-x="835" />
<glyph unicode="!" horiz-adv-x="495" d="M78 96q0 70 6 88q12 43 66 43h122q76 0 76 -90q0 -70 -8 -90q-14 -41 -68 -41h-122q-72 0 -72 90zM127 543v821q0 80 125 80q145 0 145 -127v-330q0 -70 -24.5 -103.5t-89.5 -70.5v-270q0 -76 -78 -76t-78 76z" />
<glyph unicode="&#x22;" horiz-adv-x="761" d="M139 829v523q0 100 72 100q37 0 58.5 -31.5t21.5 -70.5v-523q0 -117 -74 -116q-39 0 -61 41q-16 35 -17 77zM465 827v523q0 100 72 100q37 0 58 -32t21 -70v-523q0 -117 -73 -116q-39 0 -62 41q-16 35 -16 77z" />
<glyph unicode="#" horiz-adv-x="1228" d="M106 571q0 80 127 80q18 0 49 -2t42 -2q57 0 57 66q0 63 -4 75q-8 43 -49 43q-8 0 -41 -2t-58 -2q-123 0 -123 78q0 80 127 80q16 0 46 -2t40 -2q49 0 60 61v99q0 109 74 108q76 0 75 -125v-43q-2 -27 -2 -34q0 -51 21 -62q12 -6 74 -6q57 0 75.5 13.5t18.5 47.5 q0 8 -2 41t-2 56q0 115 73 114q59 0 72 -75q4 -16 4 -119q0 -80 60 -80q10 0 37.5 2t43.5 2q129 0 129 -76q0 -61 -73 -71q-8 -2 -121 -3q-59 0 -72 -26q-4 -8 -4 -82q0 -80 66 -80q10 0 35.5 2t42.5 2q126 0 126 -76q0 -61 -81 -73q-10 -2 -129 -2q-61 0 -62 -93 q0 -14 2 -40.5t2 -34.5q0 -102 -76 -103q-76 0 -75 107v41q2 27 2 37q0 61 -27 77q-16 10 -84 11q-74 0 -74 -68q0 -12 2 -38.5t2 -39.5q0 -127 -79 -127q-80 0 -80 125q0 16 2 46t2 40q0 63 -94 64q-14 0 -40 -2t-34 -2q-102 0 -103 75zM528 694q0 -49 113 -49q53 0 66 31 q6 15 6 78q0 55 -29 69q-16 8 -78 8q-78 0 -78 -59v-78z" />
<glyph unicode="$" horiz-adv-x="1316" d="M98 152q0 121 117 120q16 0 51 -2t53 -2q102 0 103 66v418q0 57 -43 88l-232 166q-41 29 -41 79q0 23 2.5 69t2.5 69q0 86 68.5 151.5t154.5 65.5h88q0 12 -2 39v39q0 119 78 118q61 0 75 -75q2 -16 2 -121h181q0 12 -2 39v39q0 119 80 118q59 0 73 -75q2 -18 2 -121h246 q76 0 76 -72q0 -88 -127 -88q-23 0 -65 3t-62 3q-45 0 -58.5 -14.5t-13.5 -257.5q0 -61 2 -183t2 -180l265 -190q61 -43 61 -144q0 -16 -2 -48.5t-2 -49.5q0 -104 -84 -164q-74 -51 -182 -51q-47 0 -53.5 -49t-10.5 -96q-10 -51 -67 -52q-55 0 -68 52q-6 45 -12 94t-52 49 h-75q-43 0 -49.5 -48t-10.5 -95q-12 -51 -67 -52q-55 0 -68 52q-6 45 -12 94t-51 49q-25 0 -68 -2t-59 -2q-74 0 -105 27q-39 35 -39 127zM264 1182l2 -37q0 -31 51.5 -74t79.5 -43q25 0 25 35v168q0 55 -62 55q-96 0 -96 -104zM573 395q0 -104 4.5 -110t47.5 -21 q27 -8 63.5 -51t38.5 -43q33 0 33 266q0 109 -17 135q-10 14 -112 86q-23 14 -33 15q-25 0 -25 -207v-70zM575 922q0 -33 35 -58q111 -80 125 -80q21 0 21 39v408q0 45 -45 53h-84q-51 0 -52 -61v-301zM905 274q0 -63 8 -81q12 -35 64 -35q100 -1 100 112q0 55 -35 90 q-6 6 -79 58q-18 14 -31 14q-27 0 -27 -158z" />
<glyph unicode="%" horiz-adv-x="1345" d="M84 84q0 37 29 74l1015 1251q47 57 89 57q27 0 48 -21t21 -48q0 -37 -41 -86l-1016 -1252q-35 -45 -73 -45q-29 0 -50.5 21.5t-21.5 48.5zM98 1018v282q0 59 42 100.5t100 41.5h282q57 0 99.5 -42t42.5 -100v-282q0 -59 -41 -100t-101 -41h-282q-59 0 -100.5 40.5 t-41.5 100.5zM256 1100q0 -61 63 -62h123q64 1 64 62v125q0 63 -64 63h-123q-63 0 -63 -63v-125zM694 143v285q0 59 42 100t100 41h282q57 0 99.5 -42t42.5 -99v-285q0 -59 -41 -100t-101 -41h-282q-59 0 -100.5 41t-41.5 100zM852 227q0 -63 63 -63h125q62 0 62 63v123 q0 63 -62 64h-125q-63 0 -63 -64v-123z" />
<glyph unicode="&#x26;" horiz-adv-x="1386" d="M96 236v327q0 96 64.5 165t158.5 69h203q37 0 37 14q0 10 -138 90t-155.5 144.5t-17.5 140.5q0 100 62.5 177t162.5 77h746q72 0 71 -78q0 -78 -71 -78h-740q-76 0 -76 -96q0 -68 35 -107q25 -27 94 -65l426 -236q35 -20 35 -59q0 -78 -106 -78h-565q-41 0 -41 -22 q0 2 42 -43.5t42 -122.5v-256q0 -43 47 -43h669q61 0 62 69v445q0 96 78 96q76 0 75 -98v-510q0 -156 -120 -156h-857q-96 0 -159.5 68.5t-63.5 165.5z" />
<glyph unicode="'" horiz-adv-x="430" d="M139 829v523q0 100 72 100q37 0 58.5 -31.5t21.5 -70.5v-523q0 -117 -74 -116q-39 0 -61 41q-16 35 -17 77z" />
<glyph unicode="(" horiz-adv-x="503" d="M102 434v559q0 47 45 125l156 271q33 57 80 57q29 0 48.5 -23.5t19.5 -54.5q0 -29 -17 -57l-182 -314v-548l182 -316q17 -30 17 -59q0 -74 -68 -74q-49 0 -80 55l-156 273q-16 25 -30.5 48t-14.5 58z" />
<glyph unicode=")" horiz-adv-x="514" d="M76 74q0 29 16 59l182 316v548l-182 314q-16 29 -16 57q0 31 19.5 54.5t49.5 23.5q45 0 78 -57l156 -271q16 -25 31.5 -50.5t15.5 -57.5v-559q0 -41 -47 -123l-156 -273q-31 -55 -78 -55q-70 0 -69 74z" />
<glyph unicode="*" horiz-adv-x="886" d="M104 1210q0 31 19.5 52.5t48.5 21.5q39 0 103.5 -39t74.5 -39q23 0 25 51q-2 -39 -2 68q0 115 76 115q59 0 71 -78q4 -16 4 -123q0 -31 19 -31q16 0 80.5 38t99.5 38q27 0 47.5 -22.5t20.5 -49.5q0 -45 -81 -93t-81 -64t78.5 -59.5t78.5 -100.5q0 -27 -18 -47.5 t-47 -20.5q-37 0 -99.5 38t-74.5 38q-20 0 -25 -49q2 41 2 -66q0 -117 -75 -116q-78 0 -78 121v41q2 25 2 34q0 37 -23 37q-16 0 -78.5 -39t-97.5 -39q-29 0 -48.5 22.5t-19.5 51.5q0 49 85 97.5t85 58.5q0 12 -86 59t-86 94z" />
<glyph unicode="+" horiz-adv-x="1159" d="M72 721q0 76 98 76h338v338q0 98 76 98t75 -100v-336h324q113 0 113 -76q0 -78 -117 -78h-320v-321q0 -115 -75 -115q-76 0 -76 117v319h-340q-96 0 -96 78z" />
<glyph unicode="," horiz-adv-x="464" d="M94 164v137q0 47 47 72q39 23 90 22q49 0 84 -20q45 -23 45 -68v-536q0 -76 -77 -76q-80 0 -80 76v166q0 47 -54.5 94t-54.5 133z" />
<glyph unicode="-" d="M57 721q0 76 99 76h813q112 0 112 -76q0 -78 -114 -78h-813q-96 0 -97 78z" />
<glyph unicode="." horiz-adv-x="477" d="M109 96q0 70 6 88q12 43 65 43h123q76 0 76 -90q0 -70 -8 -90q-14 -41 -68 -41h-123q-72 0 -71 90z" />
<glyph unicode="/" horiz-adv-x="1228" d="M23 88q0 33 30 70l1016 1251q47 57 86 57q27 0 48.5 -22t21.5 -49q0 -37 -39 -84l-1016 -1252q-37 -45 -74 -45q-29 0 -51 22.5t-22 51.5z" />
<glyph unicode="0" horiz-adv-x="1615" d="M102 473v502q0 195 136.5 331t328.5 136h502q193 0 329 -137.5t136 -329.5v-502q0 -193 -136 -329t-329 -136h-502q-193 0 -329 136.5t-136 328.5zM254 633q72 -43 90 -68q27 -37 27 -108q0 -39 26 -39q23 0 45 22l756 758q21 19 21 35q0 29 -64 43q-47 12 -88 12h-498 q-129 0 -222 -92t-93 -221v-342zM449 209q0 -47 120 -47h498q121 0 217 87t96 204v520q0 131 -43 131q-18 0 -43 -25l-800 -800q-45 -45 -45 -70z" />
<glyph unicode="1" horiz-adv-x="673" d="M66 1366q0 76 88 76h206q121 0 121 -82v-676q0 -47 54.5 -97t54.5 -132v-332q0 -123 -117 -123q-100 0 -123 18q-29 20 -28 113v1108q0 55 -82 55q-12 0 -37 -2h-37q-100 0 -100 74z" />
<glyph unicode="2" horiz-adv-x="1306" d="M104 322q0 96 62 139l885 635q25 18 24 71q0 117 -76 117h-815q-78 0 -78 80q0 76 76 76h824q84 0 153.5 -66.5t69.5 -150.5q0 -18 2 -53t2 -52q0 -82 -41 -112l-897 -648q-31 -23 -31 -92q0 -106 74 -106h278q39 66 68 86q37 27 104 26h332q68 0 94.5 -25t26.5 -93 q0 -152 -111 -152l-798 2q-86 0 -154.5 64.5t-68.5 150.5q0 16 -2.5 51t-2.5 52z" />
<glyph unicode="3" horiz-adv-x="1353" d="M82 1362q0 78 76 78h745q100 0 166 -80q59 -74 59 -174q0 -123 -41 -182q-35 -49 -151.5 -115t-116.5 -78q0 -14 35 -14h203q94 0 159.5 -70t65.5 -164v-327q0 -96 -64.5 -165t-160.5 -69h-856q-113 0 -113 141q0 72 26.5 100.5t96.5 28.5h332q68 0 104 -28 q29 -20 70 -84q57 0 175 -2t175 -2q47 8 61 63v361q-16 49 -61 63h-578q-35 0 -72.5 25.5t-37.5 58.5q0 31 39 53l428 236q127 70 127 172q0 96 -76 96h-739q-76 0 -76 78z" />
<glyph unicode="4" horiz-adv-x="1230" d="M102 799v561q0 78 78 78t78 -78v-486q0 -63 55 -63h465q59 0 60 57v492q0 78 80 78q78 0 77 -78v-488q0 -59 66 -61q84 -4 106 -25q23 -26 23 -53q0 -53 -47 -67q-16 -6 -88 -9q-47 -2 -47 -24q0 -10 26 -29q31 -27 45 -49q25 -41 25 -100v-332q0 -68 -25.5 -94.5 t-91.5 -26.5l-69 2q-63 0 -80 78q-6 27 -7 127q0 53 5.5 156.5t5.5 156.5q0 115 -22.5 126t-151.5 14q-90 0 -246 -3q-180 -2 -176 -2q-57 0 -100.5 42t-43.5 100z" />
<glyph unicode="5" horiz-adv-x="1318" d="M98 137q0 135 125 135h332q68 0 104 -26q29 -23 68 -86h277q78 0 77 108q0 66 -32 90l-361 260q-45 33 -96 33h-381q-96 0 -96 76v496q0 86 68.5 151.5t154.5 65.5h821q76 0 76 -78t-76 -78h-815q-76 0 -76 -121v-149q2 -100 2 -151.5t58 -55.5q41 -2 108 0q90 2 111 2 q143 0 196 -37l435 -311q61 -44 61 -144q0 -16 -2 -48.5t-2 -49.5q0 -86 -68.5 -150.5t-154.5 -64.5l-799 -2q-115 0 -115 135z" />
<glyph unicode="6" horiz-adv-x="1304" d="M98 141l13 1082q0 86 68.5 151.5t154.5 65.5h823q74 0 74 -78t-76 -78h-815q-76 0 -76 -121v-149q2 -100 2 -150q0 -57 58 -57l309 -2q61 0 106 -33l435 -311q47 -33 57 -88q2 -19 2 -109q0 -141 -79 -200.5t-146 -59.5h-791q-49 0 -84 43t-35 94zM289 621q0 6 43 -42.5 t43 -123.5v-295h626q76 0 76 104q0 70 -33 94l-358 260q-45 33 -98 33h-246q-53 0 -53 -30z" />
<glyph unicode="7" horiz-adv-x="1083" d="M70 1274v37q0 129 104 129h832q63 0 63 -43q0 -39 -35 -117l-299 -641q-12 -25 -12 -45t17.5 -59t17.5 -68q0 -37 -21 -82l-137 -301q-37 -80 -102 -80q-53 0 -104.5 39t-51.5 92q0 29 16 68q80 184 506 1087h-588q-51 0 -61 -76.5t-70 -76.5q-59 0 -71 73q-2 16 -2 117 v-90q0 10 -2 37z" />
<glyph unicode="8" horiz-adv-x="1304" d="M96 303q0 113 60 156l252 180h-68q-121 -2 -178.5 46t-59.5 169l-6 451q0 47 36 92t81 45h793q86 0 154.5 -65.5t68.5 -149.5q0 -16 2 -50.5t2 -50.5q0 -98 -62 -141l-251 -180h65q133 2 187.5 -65.5t54.5 -147.5l4 -451q0 -49 -35 -94t-84 -45h-790q-86 0 -151 62.5 t-71 146.5q-4 68 -4 92zM264 852q0 -57 58 -57h264q53 0 98 32l358 260q33 25 33 91q0 109 -76 108h-671q-63 0 -64 -65v-369zM365 221q0 -68 88 -67q90 0 272 2t274 2q64 -1 64 65v369q0 57 -57 57h-265q-53 0 -98 -33l-237 -172q-41 -29 -41 -71v-152z" />
<glyph unicode="9" horiz-adv-x="1331" d="M96 139q0 74 23.5 101.5t97.5 27.5h332q63 0 100 -24q23 -12 45.5 -43t40.5 -35q33 -8 109 -8q98 0 145 2q68 4 74 65q2 31 2 267v94q-8 51 -59 51q-39 0 -116 -2t-114 -2q-109 0 -137 8q-57 16 -483 342q-59 45 -60 139q0 16 2 50t2 51q0 86 68 151.5t154 65.5h792 q47 0 83 -45.5t36 -94.5l-12 -1081q0 -86 -70 -150.5t-156 -64.5l-819 -2q-53 0 -70 47q-10 25 -10 90zM254 1159q0 -49 33 -74l358 -260q45 -33 88 -32h273q57 0 57 57v369q0 66 -64 65h-669q-76 0 -76 -125z" />
<glyph unicode=":" horiz-adv-x="499" d="M102 96q0 70 7 88q14 43 65 43h123q76 0 76 -90q0 -70 -6 -90q-14 -41 -70 -41h-123q-72 0 -72 90zM104 506q0 70 5 88q14 43 65 43h123q76 0 76 -90q0 -70 -6 -88q-14 -43 -70 -43h-123q-70 0 -70 90z" />
<glyph unicode=";" horiz-adv-x="503" d="M125 164v137q0 47 47 72q39 23 90 22q49 0 84 -20q45 -23 45 -68v-536q0 -76 -78 -76q-80 0 -80 76v166q0 47 -54 94t-54 133zM125 606q0 70 6 88q14 43 66 43h122q76 0 76 -90q0 -70 -6 -88q-14 -43 -70 -43h-122q-72 0 -72 90z" />
<glyph unicode="&#x3c;" horiz-adv-x="851" d="M35 721q0 37 31 72l542 604q49 53 88 53q27 0 47.5 -21.5t20.5 -48.5q0 -39 -43 -86l-477 -528q-18 -20 -19 -43q0 -25 19 -45l477 -528q43 -48 43 -87q0 -27 -20.5 -49t-47.5 -22q-41 0 -88 53l-542 604q-31 35 -31 72z" />
<glyph unicode="=" horiz-adv-x="1138" d="M59 571q0 76 99 76h813q112 0 112 -76t-116 -75h-811q-96 0 -97 75zM59 905q0 76 99 76h813q112 0 112 -76t-116 -76h-811q-96 0 -97 76z" />
<glyph unicode="&#x3e;" horiz-adv-x="849" d="M66 61q0 41 43 89l475 528q20 23 20 43q0 23 -20 45l-475 528q-43 47 -43 86q0 27 20 48.5t45 21.5q41 0 88 -53l545 -604q33 -35 33 -72t-33 -72l-545 -604q-47 -53 -86 -53q-27 0 -47 21.5t-20 47.5z" />
<glyph unicode="?" horiz-adv-x="1134" d="M72 1237v68q0 135 104 135h832q94 0 94 -82q0 -57 -39 -96l-418 -418q-23 -23 -22 -39q0 -25 39 -29q61 -6 71 -10q39 -14 39 -64q0 -78 -139 -77h-49q-31 2 -39 2q-14 0 -42 -2t-42 -2q-129 0 -129 82q0 39 37 75l508 510h-586q-63 0 -74.5 -77.5t-66.5 -79.5 q-78 -2 -78 104zM410 96q0 70 6 88q14 43 67 43h125q74 0 74 -90q0 -70 -6 -88q-14 -43 -68 -43h-125q-74 0 -73 90z" />
<glyph unicode="@" horiz-adv-x="1624" d="M98 473v502q0 195 136.5 331t328.5 136h502q193 0 330 -137.5t137 -329.5v-502q0 -135 -81 -251t-206 -175q-35 -16 -65 -16q-117 0 -117 184q0 20 2 56t2 48h-500q-68 0 -112.5 45.5t-44.5 112.5v496q0 49 39 106l18 15q4 14 45 26q35 10 55 10h494q31 0 108 -40l5 -7 l6 -4q35 -49 41 -98q2 -14 2 -107q0 -80 -3 -236.5t-3 -236.5q0 -180 20 -180q10 0 37 23q104 86 104 231v498q0 131 -92 223t-223 92h-498q-131 0 -222 -91t-91 -222v-500q0 -104 61 -188q66 -90 172 -113q53 -12 211 -12q111 0 111 -76q0 -80 -158 -80h-49q-31 2 -37 2 q-193 0 -329 136.5t-136 328.5zM567 557q8 -80 84 -80h326q64 0 84 80v317q-10 76 -66 93q-14 8 -180 8q-168 0 -182 -8q-66 -25 -66 -93v-317z" />
<glyph unicode="A" horiz-adv-x="1290" d="M104 131v952q0 147 105.5 253t251.5 106h385q145 0 251.5 -106.5t106.5 -252.5v-989q0 -84 -55 -94l-23 -2q-8 0 -28 4q-49 18 -49 88v440q-2 57 -52 86q-29 16 -55 17h-459h-4q-88 0 -88 84t90 84h467q55 6 84 35q12 14 12 184q0 66 -8 88q-23 76 -92.5 125t-150.5 49 h-277q-104 0 -181 -77t-77 -181v-338q0 -29 4 -43q2 -6 34 -34.5t40 -30.5q12 -18 31 -52v-2q0 -12 3 -35.5t3 -33.5v-332q0 -119 -125 -123q-78 0 -101 18q-43 41 -43 113z" />
<glyph unicode="B" horiz-adv-x="1378" d="M109 74v995q0 76 75 76q78 0 78 -76v-383q0 -45 58.5 -96t58.5 -135v-215q0 -86 72 -86h641q53 6 61 67v354q0 51 -57 66h-582q-108 0 -108 77q0 40 36 60l426 238q68 37 93 65q36 38 36 102q0 40 -20.5 69.5t-54.5 29.5h-740q-69 0 -69 76q0 80 69 80h746q68 0 145 -58 q80 -63 80 -196q0 -74 -18.5 -140.5t-154.5 -145.5t-136 -89q0 -12 47 -16q16 -1 40.5 -1t57.5 1l92 2q94 0 160 -70t66 -164v-328q0 -96 -64.5 -164.5t-161.5 -68.5h-895q-78 0 -77 74z" />
<glyph unicode="C" horiz-adv-x="1200" d="M41 719q0 16 18 69l193 553q20 59 45 79t84 20l676 -2q98 0 98 -97q0 -75 -124 -75h-3q-96 0 -289.5 2t-289.5 2q-53 0 -72 -49l-125 -353q-37 -104 -35 -127v-8q2 -23 80 -69q53 -31 104 -62q76 -49 76 -190q0 -29 -4 -83.5t-4 -80.5q0 -55 15.5 -73.5t68.5 -18.5h514 q90 0 90 -66q0 -90 -96 -90h-678q-98 0 -127 84l-199 565q-16 47 -16 70z" />
<glyph unicode="D" horiz-adv-x="1288" d="M106 143v904q0 94 72 94q37 0 59.5 -29t22.5 -65q0 -43 -2 -127v-127q0 -141 4 -153.5t38 -33t50 -45.5q27 -41 27 -106v-209q0 -66 39 -82q23 -10 96 -10q72 0 129 55l338 323q51 49 62.5 73t11.5 89v387q0 147 -146 197q-35 12 -385 12q-53 0 -160 -2h-159 q-96 0 -97 76q0 76 99 76h643q147 0 252.5 -104.5t105.5 -252.5v-438q0 -74 -15 -112.5t-67 -90.5l-374 -368q-74 -72 -181 -72h-331q-131 0 -132 141z" />
<glyph unicode="E" horiz-adv-x="1120" d="M59 717q0 23 17 71l192 553q20 59 46 79t85 20h285q190 -2 287.5 -2t97.5 -92q0 -59 -68 -74q-18 -4 -112 -4h-174q-41 0 -123 2h-123q-53 0 -74 -49q-139 -332 -139 -398q0 -29 43 -28h672q96 0 96 -76t-94 -76q-51 0 -156.5 2t-159.5 2q-252 0 -251 -26q0 2 41.5 -44.5 t41.5 -121.5v-299h492q92 0 92 -70q0 -37 -30.5 -61.5t-69.5 -24.5h-574q-94 0 -125 84l-200 565q-14 43 -15 68z" />
<glyph unicode="F" horiz-adv-x="1081" d="M74 78v584q0 63 16 114l201 586q27 76 94 76h586q39 0 68.5 -20.5t29.5 -55.5q0 -74 -98 -74l-490 -4q-39 0 -49 -6q-16 -8 -26 -41q-37 -106 -76 -213q-59 -176 -60 -207q0 -20 58 -20h643q96 0 96 -78t-92 -78h-686q-47 0 -47 -12q0 -6 28 -27q72 -47 72 -147v-332 q0 -90 -51 -111q-27 -12 -133 -12q-84 0 -84 78z" />
<glyph unicode="G" horiz-adv-x="1251" d="M49 715q0 29 17 73l194 553q20 59 44 79t85 20l676 -2q39 0 68.5 -22.5t29.5 -61.5q0 -57 -39 -76q-25 -12 -88 -12q-94 0 -280.5 3t-278.5 3q-74 0 -92 -51l-125 -353q-35 -100 -35 -118q0 -43 66 -80q111 -61 123 -74q68 -53 67 -141v-236q0 -63 51 -63h408q66 0 66 57 v379q0 57 -50 57h-301q-96 0 -96 78q0 76 98 76h381q119 0 119 -121v-559q0 -53 -31.5 -88t-85.5 -35h-649q-98 0 -127 84l-201 565q-14 39 -14 66z" />
<glyph unicode="H" horiz-adv-x="1198" d="M106 82v1276q0 80 80 80q78 0 78 -80v-518q0 -41 37 -41h612q37 0 37 45v514q0 80 80 80t80 -80v-1276q0 -80 -80 -80t-80 80q0 51 2 154.5t2 154.5q0 225 -12 244q-10 12 -33 12h-600q-39 0 -39 -12q0 -8 35 -33q70 -49 70 -147v-332q0 -59 -42 -93t-102 -34 q-47 0 -81 20q-43 23 -44 66z" />
<glyph unicode="I" horiz-adv-x="1220" d="M100 1325q0 61 20.5 87t84.5 26h831q97 0 97 -74q0 -76 -97 -76h-288q-59 0 -60 -67v-545q0 -37 57.5 -89t57.5 -132v-244q0 -63 96 -64q14 0 43 2.5t43 2.5q0 72 8 98q14 55 68 55q69 0 69 -95q0 -19 -2 -46t-2 -35q0 -68 -14 -92q-20 -35 -82 -35h-831q-96 0 -97 76 q0 74 97 74h276q57 0 57 57v1016q0 63 -61 63h-221q0 -70 -8 -98q-14 -55 -68 -55q-57 0 -72 75q-2 14 -2 115z" />
<glyph unicode="J" horiz-adv-x="1280" d="M78 344q0 145 8 180q23 104 115 105q143 0 143 -174v-197q0 -74 90 -92q35 -8 148 -8q162 0 194 4q111 14 172 76q76 74 76 180v930q0 94 76 94q78 0 78 -99v-989q0 -147 -104.5 -250.5t-252.5 -103.5h-385q-158 0 -258 94t-100 250z" />
<glyph unicode="K" horiz-adv-x="1257" d="M104 82v1276q0 78 80 78q78 0 78 -78v-676q0 -47 54.5 -97t54.5 -132v-332q0 -68 -26 -94.5t-91 -26.5q-82 0 -100 6q-49 14 -50 76zM375 745q0 31 18 52l568 610q20 23 51 23q33 0 59.5 -24t26.5 -56q0 -29 -25 -56l-395 -424q-18 -18 -19 -39q0 -29 39 -28h367 q106 0 106 -113v-608q0 -35 -24.5 -56.5t-59.5 -21.5q-76 0 -75 78v500q0 61 -68 61h-487q-37 0 -59.5 32t-22.5 70z" />
<glyph unicode="L" horiz-adv-x="1193" d="M61 723v635q0 84 80 84q78 0 78 -84v-596q0 -37 86 -90q59 -35 119 -70q74 -47 74 -188q0 -27 -3 -80t-3 -80q0 -57 14 -77.5t67 -20.5h514q91 -1 91 -64q0 -92 -97 -92h-678q-96 0 -124 84l-209 594q-8 23 -9 45z" />
<glyph unicode="M" horiz-adv-x="1400" d="M96 82v1276q0 33 23.5 56.5t56.5 23.5q39 0 64 -31l422 -526q25 -31 38 -31q29 0 48 24l426 533q25 31 65 31q35 0 58.5 -22.5t23.5 -57.5v-1276q0 -80 -80 -80t-80 80v962q0 41 -26 41q-14 0 -29 -18l-307 -383q-35 -43 -92 -43t-93 43q-86 111 -172 221 q-147 186 -166 189q-23 -6 -22 -37v-375q0 -47 54 -97t54 -132v-332q0 -72 -26.5 -96.5t-97.5 -24.5q-76 0 -97 8q-45 14 -45 74z" />
<glyph unicode="N" horiz-adv-x="1202" d="M115 721h2v637q0 35 23.5 57.5t58.5 22.5q37 0 61 -29l627 -739q29 -33 43 -33q27 0 26 49v672q0 80 80 80t80 -80v-1276q0 -80 -80 -80t-80 80v199q0 59 -34 100l-580 686q-27 31 -43 31q-2 0 -8 -2q-16 -14 -17 -58v-356q0 -47 54.5 -97t54.5 -132v-332 q0 -72 -26.5 -96.5t-98.5 -24.5q-10 0 -33 2h-30q-78 0 -78 80z" />
<glyph unicode="O" horiz-adv-x="1583" d="M78 473v502q0 193 135 329t328 136h501q193 0 330 -137.5t137 -327.5v-502q0 -193 -136 -330t-331 -137h-501q-195 0 -329 136.5t-134 330.5zM225 737q0 -80 8 -100q2 -10 33 -29q35 -25 53 -49q27 -41 27 -104v-162q0 -55 10.5 -70.5t66.5 -39t120 -23.5h497 q127 0 217.5 85t98.5 212q4 57 4 168q0 57 -2 173.5t-2 174.5q0 131 -92.5 222t-223.5 91h-497q-119 0 -216.5 -87t-97.5 -206q0 -6 -2 -103t-2 -153z" />
<glyph unicode="P" horiz-adv-x="1255" d="M111 129l2 1229q0 80 73 80h824q84 0 153.5 -65.5t69.5 -149.5q0 -152 -31 -205q-31 -59 -160 -131q-135 -78 -272 -156q-229 -129 -252 -129q-31 0 -54.5 30t-23.5 60q0 35 39 58l471 266q45 25 62 37q39 27 49 51q16 33 16 80q0 98 -76 98h-649q-82 0 -82 -78v-522 q0 -47 54.5 -97t54.5 -132v-332q0 -72 -28.5 -97.5t-102.5 -25.5q-80 0 -108.5 26.5t-28.5 104.5z" />
<glyph unicode="Q" horiz-adv-x="1587" d="M82 473v502q0 193 136 329t329 136h502q193 0 328.5 -137.5t135.5 -327.5v-502q0 -193 -136 -330t-328 -137h-502q-195 0 -330 136.5t-135 330.5zM233 674q0 -39 58.5 -81t58.5 -138v-162q0 -51 12.5 -68.5t66.5 -41t120 -23.5h498q47 0 90 12q61 16 61 51q0 18 -18 35 l-422 395q-41 37 -41 74q0 29 22.5 50.5t48.5 21.5q37 0 74 -35l410 -385q23 -23 41 -23q49 0 49 119v498q0 129 -93 221t-222 92h-498q-129 0 -222.5 -92t-93.5 -221v-299z" />
<glyph unicode="R" horiz-adv-x="1376" d="M113 74v1294q0 74 71 74h942q74 0 126.5 -53.5t52.5 -126.5v-193q0 -74 -52.5 -126t-126.5 -52q-37 0 -110.5 2t-110.5 2q-147 0 -147 -18q0 -14 22 -48l506 -710q16 -23 17 -45q0 -29 -30 -53.5t-59 -24.5q-33 0 -55 33l-592 829q-33 45 -32 82q0 102 143 102h450 q12 0 23 19v199q0 29 -27 28h-786q-72 0 -72 -69v-553q0 -35 58.5 -77t58.5 -134v-332q0 -86 -45 -109q-27 -12 -123 -12q-102 0 -102 72z" />
<glyph unicode="S" horiz-adv-x="1259" d="M63 154q0 66 26 91t93 25h332q70 0 107 -26q29 -20 67 -86h277q77 0 77 105q0 69 -32 93l-897 648q-41 31 -41 112q0 18 2 53t2 54q0 86 68.5 150.5t154.5 64.5h821q76 0 76 -78t-76 -78h-815q-74 0 -74 -123q0 -49 23 -65l885 -635q61 -44 61 -144q0 -16 -2 -49t-2 -49 q0 -86 -68.5 -150.5t-154.5 -64.5l-801 -2q-109 0 -109 154z" />
<glyph unicode="T" horiz-adv-x="1140" d="M68 1317q0 121 104 121h832q94 0 94 -74q0 -76 -94 -76h-289q-59 0 -60 -67v-592q66 -41 86 -68q29 -39 29 -106v-332q0 -74 -28.5 -97.5t-102.5 -23.5q-139 0 -139 111v1112q0 63 -62 63h-159q-55 0 -64 -75.5t-72 -75.5q-73 0 -73 93v7v39q-2 29 -2 41z" />
<glyph unicode="U" horiz-adv-x="1312" d="M115 367v1001q0 82 75 82q76 0 76 -82q0 -80 -2 -241.5t-2 -241.5q0 -231 6 -245.5t39 -36t49 -46.5q25 -39 25 -102q0 -27 -2 -79t-2 -79q0 -68 6 -82q16 -57 233 -57q31 0 92.5 2t92.5 2q106 0 182 74.5t76 181.5v930q0 94 76 94q78 0 77 -99v-989 q0 -147 -105.5 -250.5t-252.5 -103.5h-385q-154 0 -254 105.5t-100 261.5z" />
<glyph unicode="V" horiz-adv-x="1249" d="M84 801v567q0 80 78 80q76 0 76 -80v-528q0 -45 34 -99q31 -45 62 -88q12 -18 39 -45q10 -6 164 -6q69 -46 69 -157v-52q-2 -33 -2 -49q0 -88 39 -88q14 0 29 23l336 493q20 31 20 78v498q0 92 78 92q76 0 76 -97v-552q0 -43 -13 -64q-18 -27 -36 -51l-435 -641 q-25 -35 -67 -35q-45 0 -70 35l-430 635q-35 51 -39 61q-8 20 -8 70z" />
<glyph unicode="W" horiz-adv-x="1421" d="M106 1362q0 78 80 78q78 0 78 -78q0 -72 -2 -214t-2 -214q0 -285 12 -297q12 -18 60 -47q35 -20 51 -72q10 -31 20 -31q12 0 224 267q33 41 90 41q59 0 92 -41l307 -385q14 -16 37 -17q20 0 21 39v965q0 80 79 80q78 0 78 -80v-1278q0 -80 -80 -80q-39 0 -65 33l-428 532 q-18 23 -37 23q-27 0 -49 -29q-137 -178 -422 -526q-27 -31 -60 -31q-82 0 -81 78z" />
<glyph unicode="X" horiz-adv-x="1247" d="M49 1384q0 29 28.5 53.5t57.5 24.5q33 0 60 -35l389 -518q20 -27 45 -26q23 0 41 24l387 520q23 31 57 31q33 0 58.5 -24.5t25.5 -57.5q0 -25 -14 -45l-414 -553q-23 -29 -22 -57q0 -29 22 -57l412 -549q18 -24 18 -49q0 -29 -28.5 -54.5t-59.5 -25.5t-57 34l-389 517 q-20 25 -39 24q-23 0 -55.5 -46t-32.5 -73q0 -16 6 -44.5t6 -43.5q0 -49 -41 -104l-199 -262q-45 -59 -92 -60q-35 0 -100.5 50.5t-65.5 80.5q0 51 227.5 335t227.5 325q0 31 -23 59l-415 555q-20 27 -21 51z" />
<glyph unicode="Y" horiz-adv-x="1181" d="M25 1384q0 29 28.5 53.5t57.5 24.5q33 0 59 -35l391 -518q23 -31 43 -30q18 0 41 28l389 520q23 31 58 31q33 0 58.5 -25.5t25.5 -56.5q0 -25 -15 -45l-416 -553q-57 -76 -57 -127q0 -18 52.5 -68.5t52.5 -129.5v-332q0 -68 -26 -94.5t-91 -26.5q-102 0 -121 12 q-31 18 -31 109v516q0 47 -24 84q-154 203 -455 612q-20 27 -20 51z" />
<glyph unicode="Z" horiz-adv-x="1198" d="M82 102q0 25 12 43l422 582q369 514 369 535q0 27 -47 26h-537q-55 0 -60 -79q-5 -76 -66 -76h-5q-74 2 -74 104v37q-2 25 -2 37q0 127 105 127h831q37 0 68.5 -26.5t31.5 -61.5q0 -20 -14 -41l-563 -789q-29 -39 -29 -51q0 -8 13.5 -41t13.5 -57q0 -53 -59.5 -131 t-59.5 -97q0 -27 45 -26h445q51 0 62 77.5t67 77.5q51 -2 64 -24.5t13 -79.5v-76q0 -63 -18 -90q-23 -35 -86 -35h-831q-49 0 -80 41t-31 94z" />
<glyph unicode="[" horiz-adv-x="559" d="M82 -43l2 1534q0 152 190 151q29 0 74 -2q53 -4 74 -4q111 -2 110 -75q0 -78 -139 -78q-18 0 -53 2t-51 2q-53 0 -53 -68l-3 -1390q0 -55 48 -56q16 0 50 2t52 2q149 1 149 -77t-110 -78h-217q-55 0 -89 39t-34 96z" />
<glyph unicode="\" horiz-adv-x="1239" d="M16 1397q0 27 20.5 48t47.5 21q41 0 88 -57l1016 -1251q29 -37 29 -68q0 -74 -66 -74q-45 0 -80 43l-1014 1252q-41 49 -41 86z" />
<glyph unicode="]" horiz-adv-x="598" d="M70 -100q0 78 141 77q18 0 53 -2t51 -2q53 0 54 66l2 1391q0 59 -68 59q-14 0 -42 -3t-38 -3q-154 0 -153 80q0 76 112 75h219q55 0 89 -40t34 -95l-2 -1534q0 -147 -164 -147q-10 0 -176 2q-113 2 -112 76z" />
<glyph unicode="^" horiz-adv-x="1056" d="M61 1006q0 41 54 88l356 319q35 31 70 31q37 0 73 -31l349 -307q53 -47 53 -88q0 -27 -20.5 -46.5t-47.5 -19.5q-55 0 -211.5 150.5t-195.5 150.5q-37 0 -196 -157.5t-216 -157.5q-27 0 -47.5 20.5t-20.5 47.5z" />
<glyph unicode="_" horiz-adv-x="1105" d="M49 -78q0 76 98 76h814q112 0 112 -78q0 -76 -115 -76h-813q-96 0 -96 78z" />
<glyph unicode="`" horiz-adv-x="778" d="M84 1518q0 29 21.5 47t48.5 18q37 0 71 -24l422 -308q63 -45 64 -94q0 -59 -66 -59q-43 0 -88 32l-424 308q-49 37 -49 80z" />
<glyph unicode="a" horiz-adv-x="1290" d="M104 131v952q0 147 105.5 253t251.5 106h385q145 0 251.5 -106.5t106.5 -252.5v-989q0 -84 -55 -94l-23 -2q-8 0 -28 4q-49 18 -49 88v440q-2 57 -52 86q-29 16 -55 17h-459h-4q-88 0 -88 84t90 84h467q55 6 84 35q12 14 12 184q0 66 -8 88q-23 76 -92.5 125t-150.5 49 h-277q-104 0 -181 -77t-77 -181v-338q0 -29 4 -43q2 -6 34 -34.5t40 -30.5q12 -18 31 -52v-2q0 -12 3 -35.5t3 -33.5v-332q0 -119 -125 -123q-78 0 -101 18q-43 41 -43 113z" />
<glyph unicode="b" horiz-adv-x="1378" d="M109 74v995q0 76 75 76q78 0 78 -76v-383q0 -45 58.5 -96t58.5 -135v-215q0 -86 72 -86h641q53 6 61 67v354q0 51 -57 66h-582q-108 0 -108 77q0 40 36 60l426 238q68 37 93 65q36 38 36 102q0 40 -20.5 69.5t-54.5 29.5h-740q-69 0 -69 76q0 80 69 80h746q68 0 145 -58 q80 -63 80 -196q0 -74 -18.5 -140.5t-154.5 -145.5t-136 -89q0 -12 47 -16q16 -1 40.5 -1t57.5 1l92 2q94 0 160 -70t66 -164v-328q0 -96 -64.5 -164.5t-161.5 -68.5h-895q-78 0 -77 74z" />
<glyph unicode="c" horiz-adv-x="1200" d="M41 719q0 16 18 69l193 553q20 59 45 79t84 20l676 -2q98 0 98 -97q0 -75 -124 -75h-3q-96 0 -289.5 2t-289.5 2q-53 0 -72 -49l-125 -353q-37 -104 -35 -127v-8q2 -23 80 -69q53 -31 104 -62q76 -49 76 -190q0 -29 -4 -83.5t-4 -80.5q0 -55 15.5 -73.5t68.5 -18.5h514 q90 0 90 -66q0 -90 -96 -90h-678q-98 0 -127 84l-199 565q-16 47 -16 70z" />
<glyph unicode="d" horiz-adv-x="1288" d="M106 143v904q0 94 72 94q37 0 59.5 -29t22.5 -65q0 -43 -2 -127v-127q0 -141 4 -153.5t38 -33t50 -45.5q27 -41 27 -106v-209q0 -66 39 -82q23 -10 96 -10q72 0 129 55l338 323q51 49 62.5 73t11.5 89v387q0 147 -146 197q-35 12 -385 12q-53 0 -160 -2h-159 q-96 0 -97 76q0 76 99 76h643q147 0 252.5 -104.5t105.5 -252.5v-438q0 -74 -15 -112.5t-67 -90.5l-374 -368q-74 -72 -181 -72h-331q-131 0 -132 141z" />
<glyph unicode="e" horiz-adv-x="1120" d="M59 717q0 23 17 71l192 553q20 59 46 79t85 20h285q190 -2 287.5 -2t97.5 -92q0 -59 -68 -74q-18 -4 -112 -4h-174q-41 0 -123 2h-123q-53 0 -74 -49q-139 -332 -139 -398q0 -29 43 -28h672q96 0 96 -76t-94 -76q-51 0 -156.5 2t-159.5 2q-252 0 -251 -26q0 2 41.5 -44.5 t41.5 -121.5v-299h492q92 0 92 -70q0 -37 -30.5 -61.5t-69.5 -24.5h-574q-94 0 -125 84l-200 565q-14 43 -15 68z" />
<glyph unicode="f" horiz-adv-x="1081" d="M74 78v584q0 63 16 114l201 586q27 76 94 76h586q39 0 68.5 -20.5t29.5 -55.5q0 -74 -98 -74l-490 -4q-39 0 -49 -6q-16 -8 -26 -41q-37 -106 -76 -213q-59 -176 -60 -207q0 -20 58 -20h643q96 0 96 -78t-92 -78h-686q-47 0 -47 -12q0 -6 28 -27q72 -47 72 -147v-332 q0 -90 -51 -111q-27 -12 -133 -12q-84 0 -84 78z" />
<glyph unicode="g" horiz-adv-x="1251" d="M49 715q0 29 17 73l194 553q20 59 44 79t85 20l676 -2q39 0 68.5 -22.5t29.5 -61.5q0 -57 -39 -76q-25 -12 -88 -12q-94 0 -280.5 3t-278.5 3q-74 0 -92 -51l-125 -353q-35 -100 -35 -118q0 -43 66 -80q111 -61 123 -74q68 -53 67 -141v-236q0 -63 51 -63h408q66 0 66 57 v379q0 57 -50 57h-301q-96 0 -96 78q0 76 98 76h381q119 0 119 -121v-559q0 -53 -31.5 -88t-85.5 -35h-649q-98 0 -127 84l-201 565q-14 39 -14 66z" />
<glyph unicode="h" horiz-adv-x="1198" d="M106 82v1276q0 80 80 80q78 0 78 -80v-518q0 -41 37 -41h612q37 0 37 45v514q0 80 80 80t80 -80v-1276q0 -80 -80 -80t-80 80q0 51 2 154.5t2 154.5q0 225 -12 244q-10 12 -33 12h-600q-39 0 -39 -12q0 -8 35 -33q70 -49 70 -147v-332q0 -59 -42 -93t-102 -34 q-47 0 -81 20q-43 23 -44 66z" />
<glyph unicode="i" horiz-adv-x="493" d="M117 129v592h2v637q0 80 80 80t80 -80v-676q0 -47 53 -97t53 -132v-332q0 -57 -35 -92t-92 -35q-59 0 -100 38t-41 97z" />
<glyph unicode="j" horiz-adv-x="1280" d="M78 344q0 145 8 180q23 104 115 105q143 0 143 -174v-197q0 -74 90 -92q35 -8 148 -8q162 0 194 4q111 14 172 76q76 74 76 180v930q0 94 76 94q78 0 78 -99v-989q0 -147 -104.5 -250.5t-252.5 -103.5h-385q-158 0 -258 94t-100 250z" />
<glyph unicode="k" horiz-adv-x="1257" d="M104 82v1276q0 78 80 78q78 0 78 -78v-676q0 -47 54.5 -97t54.5 -132v-332q0 -68 -26 -94.5t-91 -26.5q-82 0 -100 6q-49 14 -50 76zM375 745q0 31 18 52l568 610q20 23 51 23q33 0 59.5 -24t26.5 -56q0 -29 -25 -56l-395 -424q-18 -18 -19 -39q0 -29 39 -28h367 q106 0 106 -113v-608q0 -35 -24.5 -56.5t-59.5 -21.5q-76 0 -75 78v500q0 61 -68 61h-487q-37 0 -59.5 32t-22.5 70z" />
<glyph unicode="l" horiz-adv-x="1193" d="M61 723v635q0 84 80 84q78 0 78 -84v-596q0 -37 86 -90q59 -35 119 -70q74 -47 74 -188q0 -27 -3 -80t-3 -80q0 -57 14 -77.5t67 -20.5h514q91 -1 91 -64q0 -92 -97 -92h-678q-96 0 -124 84l-209 594q-8 23 -9 45z" />
<glyph unicode="m" horiz-adv-x="1400" d="M96 82v1276q0 33 23.5 56.5t56.5 23.5q39 0 64 -31l422 -526q25 -31 38 -31q29 0 48 24l426 533q25 31 65 31q35 0 58.5 -22.5t23.5 -57.5v-1276q0 -80 -80 -80t-80 80v962q0 41 -26 41q-14 0 -29 -18l-307 -383q-35 -43 -92 -43t-93 43q-86 111 -172 221 q-147 186 -166 189q-23 -6 -22 -37v-375q0 -47 54 -97t54 -132v-332q0 -72 -26.5 -96.5t-97.5 -24.5q-76 0 -97 8q-45 14 -45 74z" />
<glyph unicode="n" horiz-adv-x="1202" d="M115 721h2v637q0 35 23.5 57.5t58.5 22.5q37 0 61 -29l627 -739q29 -33 43 -33q27 0 26 49v672q0 80 80 80t80 -80v-1276q0 -80 -80 -80t-80 80v199q0 59 -34 100l-580 686q-27 31 -43 31q-2 0 -8 -2q-16 -14 -17 -58v-356q0 -47 54.5 -97t54.5 -132v-332 q0 -72 -26.5 -96.5t-98.5 -24.5q-10 0 -33 2h-30q-78 0 -78 80z" />
<glyph unicode="o" horiz-adv-x="1583" d="M78 473v502q0 193 135 329t328 136h501q193 0 330 -137.5t137 -327.5v-502q0 -193 -136 -330t-331 -137h-501q-195 0 -329 136.5t-134 330.5zM225 737q0 -80 8 -100q2 -10 33 -29q35 -25 53 -49q27 -41 27 -104v-162q0 -55 10.5 -70.5t66.5 -39t120 -23.5h497 q127 0 217.5 85t98.5 212q4 57 4 168q0 57 -2 173.5t-2 174.5q0 131 -92.5 222t-223.5 91h-497q-119 0 -216.5 -87t-97.5 -206q0 -6 -2 -103t-2 -153z" />
<glyph unicode="p" horiz-adv-x="1255" d="M111 129l2 1229q0 80 73 80h824q84 0 153.5 -65.5t69.5 -149.5q0 -152 -31 -205q-31 -59 -160 -131q-135 -78 -272 -156q-229 -129 -252 -129q-31 0 -54.5 30t-23.5 60q0 35 39 58l471 266q45 25 62 37q39 27 49 51q16 33 16 80q0 98 -76 98h-649q-82 0 -82 -78v-522 q0 -47 54.5 -97t54.5 -132v-332q0 -72 -28.5 -97.5t-102.5 -25.5q-80 0 -108.5 26.5t-28.5 104.5z" />
<glyph unicode="q" horiz-adv-x="1587" d="M82 473v502q0 193 136 329t329 136h502q193 0 328.5 -137.5t135.5 -327.5v-502q0 -193 -136 -330t-328 -137h-502q-195 0 -330 136.5t-135 330.5zM233 674q0 -39 58.5 -81t58.5 -138v-162q0 -51 12.5 -68.5t66.5 -41t120 -23.5h498q47 0 90 12q61 16 61 51q0 18 -18 35 l-422 395q-41 37 -41 74q0 29 22.5 50.5t48.5 21.5q37 0 74 -35l410 -385q23 -23 41 -23q49 0 49 119v498q0 129 -93 221t-222 92h-498q-129 0 -222.5 -92t-93.5 -221v-299z" />
<glyph unicode="r" horiz-adv-x="1376" d="M113 74v1294q0 74 71 74h942q74 0 126.5 -53.5t52.5 -126.5v-193q0 -74 -52.5 -126t-126.5 -52q-37 0 -110.5 2t-110.5 2q-147 0 -147 -18q0 -14 22 -48l506 -710q16 -23 17 -45q0 -29 -30 -53.5t-59 -24.5q-33 0 -55 33l-592 829q-33 45 -32 82q0 102 143 102h450 q12 0 23 19v199q0 29 -27 28h-786q-72 0 -72 -69v-553q0 -35 58.5 -77t58.5 -134v-332q0 -86 -45 -109q-27 -12 -123 -12q-102 0 -102 72z" />
<glyph unicode="s" horiz-adv-x="1259" d="M63 154q0 66 26 91t93 25h332q70 0 107 -26q29 -20 67 -86h277q77 0 77 105q0 69 -32 93l-897 648q-41 31 -41 112q0 18 2 53t2 54q0 86 68.5 150.5t154.5 64.5h821q76 0 76 -78t-76 -78h-815q-74 0 -74 -123q0 -49 23 -65l885 -635q61 -44 61 -144q0 -16 -2 -49t-2 -49 q0 -86 -68.5 -150.5t-154.5 -64.5l-801 -2q-109 0 -109 154z" />
<glyph unicode="t" horiz-adv-x="1140" d="M68 1317q0 121 104 121h832q94 0 94 -74q0 -76 -94 -76h-289q-59 0 -60 -67v-592q66 -41 86 -68q29 -39 29 -106v-332q0 -74 -28.5 -97.5t-102.5 -23.5q-139 0 -139 111v1112q0 63 -62 63h-159q-55 0 -64 -75.5t-72 -75.5q-73 0 -73 93v7v39q-2 29 -2 41z" />
<glyph unicode="u" horiz-adv-x="1312" d="M115 367v1001q0 82 75 82q76 0 76 -82q0 -80 -2 -241.5t-2 -241.5q0 -231 6 -245.5t39 -36t49 -46.5q25 -39 25 -102q0 -27 -2 -79t-2 -79q0 -68 6 -82q16 -57 233 -57q31 0 92.5 2t92.5 2q106 0 182 74.5t76 181.5v930q0 94 76 94q78 0 77 -99v-989 q0 -147 -105.5 -250.5t-252.5 -103.5h-385q-154 0 -254 105.5t-100 261.5z" />
<glyph unicode="v" horiz-adv-x="1249" d="M84 801v567q0 80 78 80q76 0 76 -80v-528q0 -45 34 -99q31 -45 62 -88q12 -18 39 -45q10 -6 164 -6q69 -46 69 -157v-52q-2 -33 -2 -49q0 -88 39 -88q14 0 29 23l336 493q20 31 20 78v498q0 92 78 92q76 0 76 -97v-552q0 -43 -13 -64q-18 -27 -36 -51l-435 -641 q-25 -35 -67 -35q-45 0 -70 35l-430 635q-35 51 -39 61q-8 20 -8 70z" />
<glyph unicode="w" horiz-adv-x="1421" d="M106 1362q0 78 80 78q78 0 78 -78q0 -72 -2 -214t-2 -214q0 -285 12 -297q12 -18 60 -47q35 -20 51 -72q10 -31 20 -31q12 0 224 267q33 41 90 41q59 0 92 -41l307 -385q14 -16 37 -17q20 0 21 39v965q0 80 79 80q78 0 78 -80v-1278q0 -80 -80 -80q-39 0 -65 33l-428 532 q-18 23 -37 23q-27 0 -49 -29q-137 -178 -422 -526q-27 -31 -60 -31q-82 0 -81 78z" />
<glyph unicode="x" horiz-adv-x="1247" d="M49 1384q0 29 28.5 53.5t57.5 24.5q33 0 60 -35l389 -518q20 -27 45 -26q23 0 41 24l387 520q23 31 57 31q33 0 58.5 -24.5t25.5 -57.5q0 -25 -14 -45l-414 -553q-23 -29 -22 -57q0 -29 22 -57l412 -549q18 -24 18 -49q0 -29 -28.5 -54.5t-59.5 -25.5t-57 34l-389 517 q-20 25 -39 24q-23 0 -55.5 -46t-32.5 -73q0 -16 6 -44.5t6 -43.5q0 -49 -41 -104l-199 -262q-45 -59 -92 -60q-35 0 -100.5 50.5t-65.5 80.5q0 51 227.5 335t227.5 325q0 31 -23 59l-415 555q-20 27 -21 51z" />
<glyph unicode="y" horiz-adv-x="1181" d="M25 1384q0 29 28.5 53.5t57.5 24.5q33 0 59 -35l391 -518q23 -31 43 -30q18 0 41 28l389 520q23 31 58 31q33 0 58.5 -25.5t25.5 -56.5q0 -25 -15 -45l-416 -553q-57 -76 -57 -127q0 -18 52.5 -68.5t52.5 -129.5v-332q0 -68 -26 -94.5t-91 -26.5q-102 0 -121 12 q-31 18 -31 109v516q0 47 -24 84q-154 203 -455 612q-20 27 -20 51z" />
<glyph unicode="z" horiz-adv-x="1198" d="M82 102q0 25 12 43l422 582q369 514 369 535q0 27 -47 26h-537q-55 0 -60 -79q-5 -76 -66 -76h-5q-74 2 -74 104v37q-2 25 -2 37q0 127 105 127h831q37 0 68.5 -26.5t31.5 -61.5q0 -20 -14 -41l-563 -789q-29 -39 -29 -51q0 -8 13.5 -41t13.5 -57q0 -53 -59.5 -131 t-59.5 -97q0 -27 45 -26h445q51 0 62 77.5t67 77.5q51 -2 64 -24.5t13 -79.5v-76q0 -63 -18 -90q-23 -35 -86 -35h-831q-49 0 -80 41t-31 94z" />
<glyph unicode="{" horiz-adv-x="1267" d="M61 721q0 76 99 76h813q112 0 112 -76q0 -78 -114 -78h-813q-96 0 -97 78zM362 76q0 41 60 76l518 299q45 27 78 26q29 0 49 -21t20 -50q0 -43 -69 -84l-520 -302q-35 -20 -64 -20t-50.5 23.5t-21.5 52.5zM362 1362q0 31 22 52.5t52 21.5q31 0 62 -19l520 -301 q69 -41 69 -86q0 -29 -20 -49t-47 -20q-33 0 -80 26l-518 299q-59 35 -60 76z" />
<glyph unicode="|" horiz-adv-x="428" d="M143 -72l7 1612q0 43 16 76q23 41 61 41q74 0 74 -115l-6 -1612q0 -98 -76 -98t-76 96z" />
<glyph unicode="}" horiz-adv-x="1259" d="M180 406q0 29 21.5 50t48.5 21q35 0 78 -26l520 -299q57 -33 57 -74q0 -31 -20.5 -54.5t-48.5 -23.5q-29 0 -66 20l-520 302q-70 41 -70 84zM180 1030q0 45 70 86l520 301q31 18 61 19q31 0 52.5 -21.5t21.5 -52.5q0 -43 -57 -76l-520 -299q-45 -27 -78 -26 q-29 0 -49.5 20t-20.5 49zM182 719q0 76 117 76h811q98 0 98 -76t-100 -76h-811q-115 0 -115 76z" />
<glyph unicode="~" horiz-adv-x="1177" d="M96 831q0 33 31 60t63 27q8 0 742 -199q0 86 4 110q14 68 72 68q59 0 73 -84q6 -29 6 -131q0 -133 -83 -133q-20 0 -48 6l-706 193q0 -102 -2 -113q-12 -68 -74 -68q-74 0 -76 99z" />
<glyph unicode="&#xa9;" horiz-adv-x="1632" d="M109 473v502q0 195 136 331t328 136h502q193 0 329 -137.5t136 -329.5v-502q0 -193 -136 -329t-329 -136h-502q-193 0 -328.5 136.5t-135.5 328.5zM260 475q0 -129 93 -221t222 -92h498q129 0 222.5 92t93.5 221v498q0 131 -92.5 223t-223.5 92h-498q-129 0 -222 -92 t-93 -221v-500zM442 735q0 8 11 41l116 332q20 59 76 59l406 -2q59 0 59 -57q0 -45 -76 -45h-174q-115 2 -174 2q-33 0 -43 -31l-74 -211q-23 -61 -22 -75v-7q2 -12 49 -41q31 -18 61 -36q47 -29 48 -115q0 -16 -2.5 -49t-2.5 -47q0 -35 8.5 -45.5t41.5 -10.5h307 q55 0 55 -41q0 -53 -57 -53h-408q-57 0 -76 51l-118 338q-10 29 -11 43z" />
<glyph unicode="&#xad;" d="M57 721q0 76 99 76h813q112 0 112 -76q0 -78 -114 -78h-813q-96 0 -97 78z" />
<glyph unicode="&#xae;" horiz-adv-x="1632" d="M109 473v502q0 195 136 331t328 136h502q193 0 329 -137.5t136 -329.5v-502q0 -193 -136 -329t-329 -136h-502q-193 0 -328.5 136.5t-135.5 328.5zM260 475q0 -129 93 -221t222 -92h498q129 0 222.5 92t93.5 221v498q0 131 -92.5 223t-223.5 92h-498q-129 0 -222 -92 t-93 -221v-500zM514 369v708q0 41 39 41h516q41 0 69.5 -29.5t28.5 -68.5v-107q0 -41 -28.5 -68.5t-69.5 -27.5h-61q-39 2 -60 2q-82 0 -82 -12q0 -6 13 -25l278 -389q8 -12 8 -24q0 -16 -16 -29.5t-33 -13.5q-16 0 -29 18l-325 455q-16 25 -17 45q0 55 78 55h246q8 0 12 10 v109q0 16 -14 16h-430q-39 0 -39 -39v-303q0 -18 32 -41.5t32 -72.5v-183q0 -47 -25 -59q-14 -6 -68 -6q-55 0 -55 39z" />
<glyph unicode="&#x2000;" horiz-adv-x="828" />
<glyph unicode="&#x2001;" horiz-adv-x="1657" />
<glyph unicode="&#x2002;" horiz-adv-x="828" />
<glyph unicode="&#x2003;" horiz-adv-x="1657" />
<glyph unicode="&#x2004;" horiz-adv-x="552" />
<glyph unicode="&#x2005;" horiz-adv-x="414" />
<glyph unicode="&#x2006;" horiz-adv-x="276" />
<glyph unicode="&#x2007;" horiz-adv-x="276" />
<glyph unicode="&#x2008;" horiz-adv-x="207" />
<glyph unicode="&#x2009;" horiz-adv-x="331" />
<glyph unicode="&#x200a;" horiz-adv-x="92" />
<glyph unicode="&#x2010;" d="M57 721q0 76 99 76h813q112 0 112 -76q0 -78 -114 -78h-813q-96 0 -97 78z" />
<glyph unicode="&#x2011;" d="M57 721q0 76 99 76h813q112 0 112 -76q0 -78 -114 -78h-813q-96 0 -97 78z" />
<glyph unicode="&#x2012;" d="M57 721q0 76 99 76h813q112 0 112 -76q0 -78 -114 -78h-813q-96 0 -97 78z" />
<glyph unicode="&#x2013;" d="M57 721q0 76 99 76h813q112 0 112 -76q0 -78 -114 -78h-813q-96 0 -97 78z" />
<glyph unicode="&#x2014;" horiz-adv-x="2148" d="M57 721q0 76 198 76h1626q224 0 224 -76q0 -78 -228 -78h-1626q-192 0 -194 78z" />
<glyph unicode="&#x2018;" horiz-adv-x="512" d="M125 827v539q0 76 78 76q80 0 80 -76v-164q0 -47 54 -95t54 -134v-139q0 -47 -49 -72q-39 -20 -90 -21q-127 0 -127 86z" />
<glyph unicode="&#x2019;" horiz-adv-x="512" d="M117 1214v140q0 47 49 71q39 20 90 21q127 0 127 -86v-539q0 -76 -78 -76q-80 0 -80 76v164q0 47 -54 95t-54 134z" />
<glyph unicode="&#x201c;" horiz-adv-x="880" d="M125 827v539q0 76 78 76q80 0 80 -76v-164q0 -47 54 -95t54 -134v-139q0 -47 -49 -72q-39 -20 -90 -21q-127 0 -127 86zM514 827v539q0 76 78 76q80 0 80 -76v-164q0 -47 54 -95t54 -134v-139q0 -47 -49 -72q-39 -20 -90 -21q-127 0 -127 86z" />
<glyph unicode="&#x201d;" horiz-adv-x="880" d="M117 1214v140q0 47 49 71q39 20 90 21q127 0 127 -86v-539q0 -76 -78 -76q-80 0 -80 76v164q0 47 -54 95t-54 134zM506 1214v140q0 47 49 71q39 20 90 21q127 0 127 -86v-539q0 -76 -78 -76q-80 0 -80 76v164q0 47 -54 95t-54 134z" />
<glyph unicode="&#x2026;" horiz-adv-x="1359" d="M109 96q0 70 6 88q12 43 65 43h123q76 0 76 -90q0 -70 -8 -90q-14 -41 -68 -41h-123q-72 0 -71 90zM545 98q0 70 6 88q14 43 65 43h123q76 0 76 -90q0 -70 -6 -88q-14 -43 -70 -43h-123q-72 0 -71 90zM983 102q0 68 6 86q12 45 66 45h123q73 0 73 -92q0 -70 -6 -88 q-14 -41 -67 -41h-123q-72 0 -72 90z" />
<glyph unicode="&#x202f;" horiz-adv-x="331" />
<glyph unicode="&#x205f;" horiz-adv-x="414" />
<glyph unicode="&#x2122;" horiz-adv-x="1417" d="M92 1456q0 63 55 64h435q51 0 51 -39t-51 -39h-150q-33 0 -33 -37v-309q61 -37 62 -92v-173q0 -63 -70 -63q-72 0 -72 57v582q0 35 -32 35h-84q-29 0 -34 -40t-38 -40q-39 0 -39 94zM672 809v670q0 41 41 41q20 0 35 -17l221 -276q12 -14 20 -15q14 0 25 13l223 278 q12 16 33 17q43 0 43 -41v-670q0 -41 -41 -41q-43 0 -43 41v504q0 23 -12 22q-8 0 -17 -10l-160 -201q-18 -23 -49 -22q-31 0 -47 22q-82 106 -178 215q-12 -2 -12 -18v-197q0 -27 28.5 -52t28.5 -68v-175q0 -63 -66 -63q-39 0 -49 4q-25 8 -24 39z" />
<glyph unicode="&#x25fc;" horiz-adv-x="1464" d="M0 0v1464h1464v-1464h-1464z" />
</font>
</defs>
</svg>
